<svg width="80" height="80" xmlns="http://www.w3.org/2000/svg">
 <style type="text/css">.st0{display:none;}
	.st1{fill:#FF0000;}</style>

 <g>
  <title>background</title>
  <rect fill="none" id="canvas_background" height="82" width="82" y="-1" x="-1"/>
 </g>
 <g>
  <title>Layer 1</title>
  <g stroke="null" id="svg_3">
   <path stroke="null" id="svg_4" d="m23.0811,32.104361c0,0 -19.401861,-7.756334 -21.060232,-16.375559c0,0 -0.693698,-6.651056 5.918109,-4.556846l3.576879,3.083143c0,0 4.769172,9.520899 12.800892,12.681605c0,0 7.02369,1.347663 7.164598,-2.705021c0,0 -2.34123,-12.681605 2.612206,-15.144241c0,0 5.777202,-1.241013 3.305904,8.37684c0,0 -0.281815,3.946035 0.834605,6.15659c0,0 4.411485,0.494466 6.882783,-3.199488c0,0 8.81213,-20.680324 17.895236,-18.217688c0,0 4.671621,4.430806 -2.200323,9.113692c0,0 -11.565243,9.598463 -11.836219,12.807646c0,0 -1.387396,3.199488 3.858694,2.957102c0,0 8.25934,-2.957102 10.188687,-4.178725c0,0 9.083106,-2.462636 7.977525,2.957102c0,0 -0.55279,3.199488 -8.81213,3.451568c0,0 -11.012453,0.746547 -9.635896,7.387908l8.530315,0.252081c0,0 21.75393,-1.473703 15.976728,7.882374c0,0 -1.105581,3.693954 -11.565243,-0.252081c0,0 -11.38098,-5.332479 -15.976728,-3.36431c-4.769172,2.79228 1.647532,8.531967 1.647532,8.531967s12.9418,10.34501 5.224412,13.302112c0,0 -4.671621,0 -8.530315,-7.387908c0,0 -3.490167,-10.926735 -8.454442,-9.191255c-2.492977,2.68563 -0.390205,12.856123 -0.390205,12.856123s5.506226,17.723222 -8.530315,18.712155s1.387396,-24.87844 2.113611,-27.990669c0.55279,-0.57203 -2.655562,-4.76045 -6.514256,-0.329644c-4.671621,4.925272 -6.698519,15.919875 -22.30672,12.148357c0,0 -3.305904,-5.012531 4.411485,-8.212018c0,0 14.968698,-3.36431 17.992787,-10.500137s-8.075076,-2.297814 -8.075076,-2.297814s-10.730638,7.630293 -15.423937,-1.241013c0,0 -1.387396,-6.15659 10.459662,-4.430806c0.032517,-0.009695 11.315946,1.473703 9.939389,-3.083143z" class="st1"/>
  </g>
 </g>
</svg>