<?xml version="1.0" standalone="no"?><!DOCTYPE svg PUBLIC "-//W3C//DTD SVG 1.1//EN" "http://www.w3.org/Graphics/SVG/1.1/DTD/svg11.dtd"><svg t="1666154568763" class="icon" viewBox="0 0 1024 1024" version="1.1" xmlns="http://www.w3.org/2000/svg" p-id="8096" width="16" height="16" xmlns:xlink="http://www.w3.org/1999/xlink"><path d="M746.666667 981.333333H277.333333c-23.466667 0-42.666667-19.2-42.666666-42.666666V170.666667h554.666666v768c0 23.466667-19.2 42.666667-42.666666 42.666666z" fill="#FF6060" p-id="8097"></path><path d="M832 256H192c-12.8 0-21.333333-8.533333-21.333333-21.333333V192c0-12.8 8.533333-21.333333 21.333333-21.333333h640c12.8 0 21.333333 8.533333 21.333333 21.333333v42.666667c0 12.8-8.533333 21.333333-21.333333 21.333333z" fill="#E03232" p-id="8098"></path><path d="M341.333333 789.333333c-12.8 0-21.333333-8.533333-21.333333-21.333333V384c0-12.8 8.533333-21.333333 21.333333-21.333333s21.333333 8.533333 21.333334 21.333333v384c0 12.8-8.533333 21.333333-21.333334 21.333333zM512 789.333333c-12.8 0-21.333333-8.533333-21.333333-21.333333V384c0-12.8 8.533333-21.333333 21.333333-21.333333s21.333333 8.533333 21.333333 21.333333v384c0 12.8-8.533333 21.333333-21.333333 21.333333zM682.666667 789.333333c-12.8 0-21.333333-8.533333-21.333334-21.333333V384c0-12.8 8.533333-21.333333 21.333334-21.333333s21.333333 8.533333 21.333333 21.333333v384c0 12.8-8.533333 21.333333-21.333333 21.333333z" fill="#FFFFFF" p-id="8099"></path><path d="M512 42.666667c-70.4 0-128 57.6-128 128h42.666667c0-46.933333 38.4-85.333333 85.333333-85.333334s85.333333 38.4 85.333333 85.333334h42.666667c0-70.4-57.6-128-128-128z" fill="#FF6060" p-id="8100"></path></svg>