<svg width="16" height="16" xmlns="http://www.w3.org/2000/svg" viewBox="0 0 16 16">

 <g>
  <title>background</title>
  <rect fill="none" id="canvas_background" height="18" width="18" y="-1" x="-1"/>
 </g>
 <g>
  <title>Layer 1</title>
  <rect fill="none" height="48" width="48" id="frame"/>
  <g id="svg_1" fill-rule="evenodd">
   <path  id="svg_3" fill="#E41300" d="m14.97816,7.879423c0,3.799321 -3.129203,6.879423 -6.989077,6.879423s-6.989083,-3.080102 -6.989083,-6.879423s3.129203,-6.879423 6.989083,-6.879423s6.989077,3.080102 6.989077,6.879423z"/>
   <path  id="svg_4" fill="#EBEBEB" d="m9.957163,4.235441l-2.038975,2.039319l-2.038975,-2.039319a1.032566,1.032567 0 0 0 -1.46005,0l-0.244369,0.244373a1.032566,1.032567 0 0 0 0,1.460052l2.039314,2.038976l-2.039314,2.038968a1.032566,1.032567 0 0 0 0,1.460052l0.244369,0.24403a1.032566,1.032567 0 0 0 1.46005,0l2.038975,-2.038976l2.038975,2.038976a1.032566,1.032567 0 0 0 1.46005,0l0.244029,-0.24403a1.032566,1.032567 0 0 0 0,-1.460052l-2.038975,-2.038968l2.038975,-2.038976a1.032566,1.032567 0 0 0 0,-1.460052l-0.244376,-0.244373a1.032566,1.032567 0 0 0 -1.459704,0z"/>
  </g>
 </g>
</svg>