<svg width="16" height="16" xmlns="http://www.w3.org/2000/svg" viewBox="0 0 16 16">

 <g>
  <title>background</title>
  <rect fill="none" id="canvas_background" height="16" width="16" y="-1" x="-1"/>
 </g>
 <g>
  <title>Layer 1</title>
  <rect x="0" y="-0.126582" fill="none" height="21" width="21" id="frame"/>
  <g id="svg_1" fill-rule="evenodd">
   <path id="svg_3" fill="#329932" d="m15.10927,7.90507a7.140909,7.08428 0 1 1 -7.140909,-7.08428a7.140909,7.08428 0 0 1 7.140909,7.08428z"/>
   <path id="svg_4" fill="#329932" d="m14.269163,7.90507c0,3.452962 -2.820239,6.250836 -6.300802,6.250836a6.299962,6.250002 0 0 1 -6.300802,-6.250836c0,-3.452962 2.820239,-6.250836 6.300802,-6.250836s6.300802,2.797874 6.300802,6.250836z"/>
   <path id="svg_5" fill="#FFF" d="m6.288147,11.655572l-2.100267,-4.167224l2.100267,0l1.050134,2.083612l3.150401,-6.250836l2.100267,0l-4.200535,8.334448l-2.100267,0z"/>
  </g>
 </g>
</svg>