<svg xmlns="http://www.w3.org/2000/svg" width="16" height="16" viewBox="0 0 16 16">
    <style type="text/css">.st1{fill:#FF0000;}</style>
    <rect id="frame" width="16" height="16" fill="none"/>
    <path d="m4.73424,6.409828c0,0 -3.657953,-1.495694 -3.970616,-3.157783c0,0 -0.130787,-1.282557 1.115778,-0.87872l0.674371,0.594538c0,0 0.899162,1.835964 2.413431,2.445459c0,0 1.32422,0.259877 1.350786,-0.521623c0,0 -0.441407,-2.445459 0.492495,-2.920342c0,0 1.089212,-0.239311 0.623282,1.615349c0,0 -0.053132,0.760934 0.157353,1.187207c0,0 0.831724,0.09535 1.297654,-0.616974c0,0 1.661405,-3.987893 3.373899,-3.513011c0,0 0.88077,0.854415 -0.41484,1.75744c0,0 -2.180467,1.850921 -2.231556,2.469764c0,0 -0.261574,0.616974 0.727503,0.570233c0,0 1.557184,-0.570233 1.920936,-0.805805c0,0 1.712494,-0.474883 1.504052,0.570233c0,0 -0.104221,0.616974 -1.661405,0.665584c0,0 -2.076246,0.143961 -1.816715,1.424648l1.608273,0.04861c0,0 4.101403,-0.284182 3.012191,1.519999c0,0 -0.208442,0.712324 -2.180467,-0.04861c0,0 -2.145726,-1.028289 -3.012191,-0.648757c-0.899162,0.53845 0.310619,1.645263 0.310619,1.645263s2.439998,1.994881 0.984991,2.565115c0,0 -0.88077,0 -1.608273,-1.424648c0,0 -0.658023,-2.107058 -1.593968,-1.772397c-0.470016,0.517884 -0.073568,2.479112 -0.073568,2.479112s1.038123,3.41766 -1.608273,3.608361s0.261574,-4.797437 0.398492,-5.397585c0.104221,-0.110307 -0.50067,-0.917982 -1.228173,-0.063567c-0.88077,0.949765 -1.262913,3.069911 -4.205624,2.34263c0,0 -0.623282,-0.966592 0.831724,-1.583566c0,0 2.822141,-0.648757 3.392291,-2.024795s-1.522444,-0.443099 -1.522444,-0.443099s-2.023114,1.471389 -2.90797,-0.239311c0,0 -0.261574,-1.187207 1.972025,-0.854415c0.006131,-0.00187 2.133465,0.284182 1.873934,-0.594538z"
          class="st1"/>
</svg>